<?xml version="1.0" encoding="utf-8"?>
<!-- Generator: Adobe Illustrator 23.0.0, SVG Export Plug-In . SVG Version: 6.00 Build 0)  -->
<svg version="1.1" id="Layer_1" xmlns="http://www.w3.org/2000/svg" xmlns:xlink="http://www.w3.org/1999/xlink" x="0px" y="0px"
	 viewBox="0 0 500 500" style="enable-background:new 0 0 500 500;" xml:space="preserve">
<style type="text/css">
	.st0{fill:#2B7A78;}
	.st1{enable-background:new    ;}
	.st2{fill:#FEFFFF;}
</style>
<rect class="st0" width="500" height="500"/>
<g class="st1">
	<path class="st2" d="M95.9,302.9v46.2c0,5.6,1.9,9,3.5,10.9c2.1,2.5,6,5.1,11.7,5.1c5.7,0,9.6-2.5,11.7-5.1
		c1.7-1.9,3.5-5.3,3.5-10.9v-46.2h14.3v45c0,7-1.1,14-5.5,19.6c-5.3,7-14.6,10.6-24.1,10.6c-9.5,0-18.8-3.6-24.1-10.6
		c-4.4-5.6-5.5-12.7-5.5-19.6v-45H95.9z"/>
	<path class="st2" d="M157.5,376.5v-73.6h9.9l44.8,49.1v-49.1h14.3v73.6h-9.9l-44.8-49.2v49.2H157.5z"/>
	<path class="st2" d="M262.5,302.9c10.3,0,19.2,1.1,27.4,7.2c8.9,6.7,14.1,17.4,14.1,29.7s-5.1,22.8-14.8,29.7
		c-8.6,6.1-16.7,7.1-26.9,7.1h-19v-73.6H262.5z M257.7,364.1h4.4c3.6,0,11.6-0.2,18-4.9c5.8-4.2,9.2-11.7,9.2-19.5
		c0-7.7-3.2-15.2-9-19.6c-6-4.4-13.2-4.9-18.1-4.9h-4.4V364.1z"/>
	<path class="st2" d="M358.1,315.2h-26.5v16.4H357V344h-25.4v20.1h26.5v12.4h-40.8v-73.6h40.8V315.2z"/>
	<path class="st2" d="M393.3,302.9c10.2,0,15.3,2.6,18.8,5.5c5.6,4.7,7.3,11,7.3,16.6c0,7.2-2.9,13.5-8.6,17.3
		c-1.9,1.3-4.5,2.5-8.1,3.2l23,31h-17.9l-19.6-29.6h-1.8v29.6H372v-73.6H393.3z M386.3,336.7h4.1c2.8,0,14.1-0.3,14.1-11.1
		c0-10.9-11.3-11-13.9-11h-4.3V336.7z"/>
</g>
<g class="st1">
	<path class="st2" d="M103.7,425.9c-1.9,1-4.4,1.8-7.8,1.8c-5.5,0-8.9-1.9-11.5-4.4c-3.6-3.5-5-7.4-5-12c0-5.7,2.4-9.8,5-12.3
		c3.2-3,7.1-4.2,11.6-4.2c2.2,0,4.9,0.4,7.7,1.9v7.2c-2.9-3.3-6.5-3.5-7.6-3.5c-6.3,0-10.4,5.2-10.4,11c0,7,5.4,10.8,10.7,10.8
		c2.9,0,5.5-1.3,7.4-3.4V425.9z"/>
	<path class="st2" d="M141.4,411.3c0,9.6-6.9,16.4-16.8,16.4c-9.9,0-16.8-6.8-16.8-16.4s6.9-16.5,16.8-16.5
		C134.5,394.8,141.4,401.7,141.4,411.3z M135.1,411.3c0-6.4-4.3-10.9-10.5-10.9c-6.1,0-10.5,4.5-10.5,10.9s4.3,10.8,10.5,10.8
		C130.7,422.1,135.1,417.7,135.1,411.3z"/>
	<path class="st2" d="M147.1,427v-31.5h4.2l19.1,21v-21h6.1V427h-4.2l-19.1-21v21H147.1z"/>
	<path class="st2" d="M199.2,402.7c-1.8-2.5-4-2.7-5.1-2.7c-3.3,0-4.3,2.1-4.3,3.7c0,0.8,0.2,1.5,1,2.1c0.8,0.7,1.8,1.1,3.8,1.8
		c2.5,0.8,4.8,1.7,6.4,3.2c1.4,1.3,2.7,3.4,2.7,6.6c0,6.1-4.4,10.3-10.9,10.3c-5.8,0-9.2-3.5-10.8-5.9l4-3.8
		c1.5,3.1,4.4,4.2,6.6,4.2c2.8,0,4.9-1.7,4.9-4.3c0-1.1-0.4-2-1.2-2.8c-1.2-1.1-3.1-1.7-4.9-2.3c-1.7-0.6-3.6-1.3-5.2-2.7
		c-1-0.9-2.5-2.6-2.5-5.8c0-4.6,3.1-9.2,10.1-9.2c2,0,5.7,0.4,8.9,3.7L199.2,402.7z"/>
	<path class="st2" d="M218.4,400.8V427h-6.1v-26.2h-7.1v-5.3h20.3v5.3H218.4z"/>
	<path class="st2" d="M238.4,395.5c4.3,0,6.6,1.1,8,2.4c2.4,2,3.1,4.7,3.1,7.1c0,3.1-1.2,5.8-3.7,7.4c-0.8,0.6-1.9,1.1-3.4,1.4
		l9.8,13.3h-7.6l-8.4-12.6h-0.8V427h-6.1v-31.5H238.4z M235.4,410h1.7c1.2,0,6-0.1,6-4.8c0-4.7-4.8-4.7-5.9-4.7h-1.8V410z"/>
	<path class="st2" d="M262.5,395.5v19.8c0,2.4,0.8,3.9,1.5,4.7c0.9,1.1,2.5,2.2,5,2.2c2.5,0,4.1-1.1,5-2.2c0.7-0.8,1.5-2.3,1.5-4.7
		v-19.8h6.1v19.2c0,3-0.5,6-2.4,8.4c-2.3,3-6.2,4.5-10.3,4.5c-4.1,0-8-1.6-10.3-4.5c-1.9-2.4-2.4-5.4-2.4-8.4v-19.2H262.5z"/>
	<path class="st2" d="M311.7,425.9c-1.9,1-4.4,1.8-7.8,1.8c-5.5,0-8.9-1.9-11.5-4.4c-3.6-3.5-5-7.4-5-12c0-5.7,2.4-9.8,5-12.3
		c3.2-3,7.1-4.2,11.6-4.2c2.2,0,4.9,0.4,7.7,1.9v7.2c-2.9-3.3-6.5-3.5-7.6-3.5c-6.3,0-10.4,5.2-10.4,11c0,7,5.4,10.8,10.7,10.8
		c2.9,0,5.5-1.3,7.4-3.4V425.9z"/>
	<path class="st2" d="M327.8,400.8V427h-6.1v-26.2h-7.1v-5.3h20.3v5.3H327.8z"/>
	<path class="st2" d="M344.8,395.5V427h-6.1v-31.5H344.8z"/>
	<path class="st2" d="M384.1,411.3c0,9.6-6.9,16.4-16.8,16.4s-16.8-6.8-16.8-16.4s6.9-16.5,16.8-16.5S384.1,401.7,384.1,411.3z
		 M377.8,411.3c0-6.4-4.3-10.9-10.5-10.9s-10.5,4.5-10.5,10.9s4.3,10.8,10.5,10.8S377.8,417.7,377.8,411.3z"/>
	<path class="st2" d="M389.7,427v-31.5h4.2l19.1,21v-21h6.1V427H415l-19.1-21v21H389.7z"/>
</g>
<g class="st1">
	<path class="st2" d="M250,221.5c14.4,0,25.5,11.1,25.5,25.5c0,14.4-11.1,25.5-25.5,25.5c-14.4,0-25.5-11.1-25.5-25.5
		C224.6,232.6,235.7,221.5,250,221.5z M229.8,201.9V50.3h40.5v151.6H229.8z"/>
</g>
</svg>
