<?xml version="1.0" encoding="utf-8"?>
<!-- Generator: Adobe Illustrator 23.0.0, SVG Export Plug-In . SVG Version: 6.00 Build 0)  -->
<svg version="1.1" id="Layer_1" xmlns="http://www.w3.org/2000/svg" xmlns:xlink="http://www.w3.org/1999/xlink" x="0px" y="0px"
	 viewBox="0 0 648 1152" style="enable-background:new 0 0 648 1152;" xml:space="preserve">
<style type="text/css">
	.st0{clip-path:url(#SVGID_2_);fill:none;}
	.st1{clip-path:url(#SVGID_2_);fill:#17252A;}
	.st2{clip-path:url(#SVGID_2_);}
	.st3{fill:#22635E;}
	.st4{fill:#2B7A77;}
	.st5{enable-background:new    ;}
	.st6{fill:#FEFFFF;}
</style>
<g>
	<defs>
		<rect id="SVGID_1_" y="-0.3" width="648" height="1152"/>
	</defs>
	<clipPath id="SVGID_2_">
		<use xlink:href="#SVGID_1_"  style="overflow:visible;"/>
	</clipPath>
	<rect y="-0.3" class="st0" width="648" height="1152"/>
	<rect y="-0.3" class="st1" width="648" height="1152"/>
	<rect y="-0.3" class="st0" width="648" height="1152"/>
	<g class="st2">
		<polygon class="st3" points="44.4,1065.3 44.4,1128.2 98.9,1096.8 		"/>
		<polygon class="st3" points="-10,1033.9 -10,1096.8 44.4,1065.3 		"/>
		<polygon class="st4" points="44.4,1002.5 44.4,1065.3 98.9,1033.9 		"/>
		<polygon class="st3" points="44.4,1065.3 98.9,1096.8 98.9,1033.9 		"/>
		<polygon class="st3" points="-10,1096.8 44.4,1128.2 44.4,1065.3 		"/>
		<polygon class="st4" points="-10,1033.9 44.4,1065.3 44.4,1002.5 		"/>
	</g>
	<rect y="-0.3" class="st0" width="648" height="1152"/>
	<g class="st2">
		<polygon class="st3" points="318.1,1033.9 318.1,1096.8 372.5,1065.3 		"/>
		<polygon class="st3" points="263.6,1002.5 263.6,1065.3 318.1,1033.9 		"/>
		<polygon class="st4" points="318.1,971 318.1,1033.9 372.5,1002.5 		"/>
		<polygon class="st3" points="318.1,1033.9 372.5,1065.3 372.5,1002.5 		"/>
		<polygon class="st3" points="263.6,1065.3 318.1,1096.8 318.1,1033.9 		"/>
		<polygon class="st4" points="263.6,1002.5 318.1,1033.9 318.1,971 		"/>
	</g>
	<rect y="-0.3" class="st0" width="648" height="1152"/>
	<g class="st2">
		<polygon class="st3" points="207.8,908.2 207.8,971 262.2,939.6 		"/>
		<polygon class="st3" points="153.3,876.8 153.3,939.6 207.8,908.2 		"/>
		<polygon class="st4" points="207.8,845.3 207.8,908.2 262.2,876.8 		"/>
		<polygon class="st3" points="207.8,908.2 262.2,939.6 262.2,876.8 		"/>
		<polygon class="st3" points="153.3,939.6 207.8,971 207.8,908.2 		"/>
		<polygon class="st4" points="153.3,876.8 207.8,908.2 207.8,845.3 		"/>
	</g>
	<rect y="-0.3" class="st0" width="648" height="1152"/>
	<g class="st2">
		<polygon class="st3" points="44.4,939.6 44.4,1002.5 98.9,971 		"/>
		<polygon class="st3" points="-10,908.2 -10,971 44.4,939.6 		"/>
		<polygon class="st4" points="44.4,876.8 44.4,939.6 98.9,908.2 		"/>
		<polygon class="st3" points="44.4,939.6 98.9,971 98.9,908.2 		"/>
		<polygon class="st3" points="-10,971 44.4,1002.5 44.4,939.6 		"/>
		<polygon class="st4" points="-10,908.2 44.4,939.6 44.4,876.8 		"/>
	</g>
	<rect y="-0.3" class="st0" width="648" height="1152"/>
	<g class="st2">
		<polygon class="st3" points="207.8,1033.9 207.8,1096.8 262.2,1065.4 		"/>
		<polygon class="st3" points="153.3,1002.5 153.3,1065.4 207.8,1033.9 		"/>
		<polygon class="st4" points="207.8,971.1 207.8,1033.9 262.2,1002.5 		"/>
		<polygon class="st3" points="207.8,1033.9 262.2,1065.4 262.2,1002.5 		"/>
		<polygon class="st3" points="153.3,1065.4 207.8,1096.8 207.8,1033.9 		"/>
		<polygon class="st4" points="153.3,1002.5 207.8,1033.9 207.8,971.1 		"/>
	</g>
	<rect y="-0.3" class="st0" width="648" height="1152"/>
	<g class="st2">
		<polygon class="st3" points="263.8,1065.3 263.8,1128.2 318.2,1096.8 		"/>
		<polygon class="st3" points="209.3,1033.9 209.3,1096.8 263.8,1065.3 		"/>
		<polygon class="st4" points="263.8,1002.5 263.8,1065.3 318.2,1033.9 		"/>
		<polygon class="st3" points="263.8,1065.3 318.2,1096.8 318.2,1033.9 		"/>
		<polygon class="st3" points="209.3,1096.8 263.8,1128.2 263.8,1065.3 		"/>
		<polygon class="st4" points="209.3,1033.9 263.8,1065.3 263.8,1002.5 		"/>
	</g>
	<rect y="-0.3" class="st0" width="648" height="1152"/>
	<g class="st2">
		<polygon class="st3" points="98.9,971 98.9,1033.9 153.3,1002.5 		"/>
		<polygon class="st3" points="44.4,939.6 44.4,1002.5 98.9,971 		"/>
		<polygon class="st4" points="98.9,908.2 98.9,971 153.3,939.6 		"/>
		<polygon class="st3" points="98.9,971 153.3,1002.5 153.3,939.6 		"/>
		<polygon class="st3" points="44.4,1002.5 98.9,1033.9 98.9,971 		"/>
		<polygon class="st4" points="44.4,939.6 98.9,971 98.9,908.2 		"/>
	</g>
	<rect y="-0.3" class="st0" width="648" height="1152"/>
	<g class="st2">
		<polygon class="st3" points="262.2,939.6 262.2,1002.5 316.7,971 		"/>
		<polygon class="st3" points="207.8,908.2 207.8,971 262.2,939.6 		"/>
		<polygon class="st4" points="262.2,876.8 262.2,939.6 316.7,908.2 		"/>
		<polygon class="st3" points="262.2,939.6 316.7,971 316.7,908.2 		"/>
		<polygon class="st3" points="207.8,971 262.2,1002.5 262.2,939.6 		"/>
		<polygon class="st4" points="207.8,908.2 262.2,939.6 262.2,876.8 		"/>
	</g>
	<rect y="-0.3" class="st0" width="648" height="1152"/>
	<g class="st2">
		<polygon class="st3" points="316.7,1033.9 316.7,1096.8 371.1,1065.4 		"/>
		<polygon class="st3" points="262.2,1002.5 262.2,1065.4 316.7,1033.9 		"/>
		<polygon class="st4" points="316.7,971.1 316.7,1033.9 371.1,1002.5 		"/>
		<polygon class="st3" points="316.7,1033.9 371.1,1065.4 371.1,1002.5 		"/>
		<polygon class="st3" points="262.2,1065.4 316.7,1096.8 316.7,1033.9 		"/>
		<polygon class="st4" points="262.2,1002.5 316.7,1033.9 316.7,971.1 		"/>
	</g>
	<rect y="-0.3" class="st0" width="648" height="1152"/>
	<g class="st2">
		<polygon class="st3" points="-10,1159.7 -10,1222.5 44.4,1191.1 		"/>
		<polygon class="st3" points="-64.5,1128.2 -64.5,1191.1 -10,1159.7 		"/>
		<polygon class="st4" points="-10,1096.8 -10,1159.7 44.4,1128.2 		"/>
		<polygon class="st3" points="-10,1159.7 44.4,1191.1 44.4,1128.2 		"/>
		<polygon class="st3" points="-64.5,1191.1 -10,1222.5 -10,1159.7 		"/>
		<polygon class="st4" points="-64.5,1128.2 -10,1159.7 -10,1096.8 		"/>
	</g>
	<rect y="-0.3" class="st0" width="648" height="1152"/>
	<g class="st2">
		<polygon class="st3" points="44.4,1191.1 44.4,1254 98.9,1222.5 		"/>
		<polygon class="st3" points="-10,1159.7 -10,1222.5 44.4,1191.1 		"/>
		<polygon class="st4" points="44.4,1128.2 44.4,1191.1 98.9,1159.7 		"/>
		<polygon class="st3" points="44.4,1191.1 98.9,1222.5 98.9,1159.7 		"/>
		<polygon class="st3" points="-10,1222.5 44.4,1254 44.4,1191.1 		"/>
		<polygon class="st4" points="-10,1159.7 44.4,1191.1 44.4,1128.2 		"/>
	</g>
	<rect y="-0.3" class="st0" width="648" height="1152"/>
	<g class="st2">
		<polygon class="st3" points="262.2,1065.4 262.2,1128.2 316.7,1096.8 		"/>
		<polygon class="st3" points="207.8,1033.9 207.8,1096.8 262.2,1065.4 		"/>
		<polygon class="st4" points="262.2,1002.5 262.2,1065.4 316.7,1033.9 		"/>
		<polygon class="st3" points="262.2,1065.4 316.7,1096.8 316.7,1033.9 		"/>
		<polygon class="st3" points="207.8,1096.8 262.2,1128.2 262.2,1065.4 		"/>
		<polygon class="st4" points="207.8,1033.9 262.2,1065.4 262.2,1002.5 		"/>
	</g>
	<rect y="-0.3" class="st0" width="648" height="1152"/>
	<g class="st2">
		<polygon class="st3" points="-10,971.1 -10,1033.9 44.4,1002.5 		"/>
		<polygon class="st3" points="-64.5,939.6 -64.5,1002.5 -10,971.1 		"/>
		<polygon class="st4" points="-10,908.2 -10,971.1 44.4,939.6 		"/>
		<polygon class="st3" points="-10,971.1 44.4,1002.5 44.4,939.6 		"/>
		<polygon class="st3" points="-64.5,1002.5 -10,1033.9 -10,971.1 		"/>
		<polygon class="st4" points="-64.5,939.6 -10,971.1 -10,908.2 		"/>
	</g>
	<rect y="-0.3" class="st0" width="648" height="1152"/>
	<g class="st2">
		<polygon class="st3" points="697.8,1065.4 697.8,1128.2 752.3,1096.8 		"/>
		<polygon class="st3" points="643.4,1033.9 643.4,1096.8 697.8,1065.4 		"/>
		<polygon class="st4" points="697.8,1002.5 697.8,1065.4 752.3,1033.9 		"/>
		<polygon class="st3" points="697.8,1065.4 752.3,1096.8 752.3,1033.9 		"/>
		<polygon class="st3" points="643.4,1096.8 697.8,1128.2 697.8,1065.4 		"/>
		<polygon class="st4" points="643.4,1033.9 697.8,1065.4 697.8,1002.5 		"/>
	</g>
	<rect y="-0.3" class="st0" width="648" height="1152"/>
	<g class="st2">
		<polygon class="st3" points="588.9,1065.4 588.9,1128.2 643.3,1096.8 		"/>
		<polygon class="st3" points="534.5,1033.9 534.5,1096.8 588.9,1065.4 		"/>
		<polygon class="st4" points="588.9,1002.5 588.9,1065.4 643.3,1033.9 		"/>
		<polygon class="st3" points="588.9,1065.4 643.3,1096.8 643.3,1033.9 		"/>
		<polygon class="st3" points="534.5,1096.8 588.9,1128.2 588.9,1065.4 		"/>
		<polygon class="st4" points="534.5,1033.9 588.9,1065.4 588.9,1002.5 		"/>
	</g>
	<rect y="-0.3" class="st0" width="648" height="1152"/>
	<g class="st2">
		<polygon class="st3" points="643.4,971.1 643.4,1033.9 697.8,1002.5 		"/>
		<polygon class="st3" points="588.9,939.6 588.9,1002.5 643.4,971.1 		"/>
		<polygon class="st4" points="643.4,908.2 643.4,971.1 697.8,939.6 		"/>
		<polygon class="st3" points="643.4,971.1 697.8,1002.5 697.8,939.6 		"/>
		<polygon class="st3" points="588.9,1002.5 643.4,1033.9 643.4,971.1 		"/>
		<polygon class="st4" points="588.9,939.6 643.4,971.1 643.4,908.2 		"/>
	</g>
	<rect y="-0.3" class="st0" width="648" height="1152"/>
	<g class="st2">
		<polygon class="st3" points="588.9,1191.1 588.9,1254 643.4,1222.6 		"/>
		<polygon class="st3" points="534.5,1159.7 534.5,1222.6 588.9,1191.1 		"/>
		<polygon class="st4" points="588.9,1128.2 588.9,1191.1 643.4,1159.7 		"/>
		<polygon class="st3" points="588.9,1191.1 643.4,1222.6 643.4,1159.7 		"/>
		<polygon class="st3" points="534.5,1222.6 588.9,1254 588.9,1191.1 		"/>
		<polygon class="st4" points="534.5,1159.7 588.9,1191.1 588.9,1128.2 		"/>
	</g>
	<rect y="-0.3" class="st0" width="648" height="1152"/>
	<g class="st2">
		<polygon class="st3" points="480,1191.1 480,1253.9 534.5,1222.5 		"/>
		<polygon class="st3" points="425.6,1159.7 425.6,1222.5 480,1191.1 		"/>
		<polygon class="st4" points="480,1128.2 480,1191.1 534.5,1159.7 		"/>
		<polygon class="st3" points="480,1191.1 534.5,1222.5 534.5,1159.7 		"/>
		<polygon class="st3" points="425.6,1222.5 480,1253.9 480,1191.1 		"/>
		<polygon class="st4" points="425.6,1159.7 480,1191.1 480,1128.2 		"/>
	</g>
	<rect y="-0.3" class="st0" width="648" height="1152"/>
	<g class="st2">
		<polygon class="st3" points="534.5,1222.6 534.5,1285.4 588.9,1254 		"/>
		<polygon class="st3" points="480,1191.1 480,1254 534.5,1222.6 		"/>
		<polygon class="st4" points="534.5,1159.7 534.5,1222.6 588.9,1191.1 		"/>
		<polygon class="st3" points="534.5,1222.6 588.9,1254 588.9,1191.1 		"/>
		<polygon class="st3" points="480,1254 534.5,1285.4 534.5,1222.6 		"/>
		<polygon class="st4" points="480,1191.1 534.5,1222.6 534.5,1159.7 		"/>
	</g>
	<rect y="-0.3" class="st0" width="648" height="1152"/>
	<g class="st2">
		<polygon class="st3" points="534.5,971.1 534.5,1033.9 588.9,1002.5 		"/>
		<polygon class="st3" points="480,939.6 480,1002.5 534.5,971.1 		"/>
		<polygon class="st4" points="534.5,908.2 534.5,971.1 588.9,939.6 		"/>
		<polygon class="st3" points="534.5,971.1 588.9,1002.5 588.9,939.6 		"/>
		<polygon class="st3" points="480,1002.5 534.5,1033.9 534.5,971.1 		"/>
		<polygon class="st4" points="480,939.6 534.5,971.1 534.5,908.2 		"/>
	</g>
	<rect y="-0.3" class="st0" width="648" height="1152"/>
	<g class="st2">
		<polygon class="st3" points="425.6,971.1 425.6,1033.9 480,1002.5 		"/>
		<polygon class="st3" points="371.1,939.6 371.1,1002.5 425.6,971.1 		"/>
		<polygon class="st4" points="425.6,908.2 425.6,971.1 480,939.6 		"/>
		<polygon class="st3" points="425.6,971.1 480,1002.5 480,939.6 		"/>
		<polygon class="st3" points="371.1,1002.5 425.6,1033.9 425.6,971.1 		"/>
		<polygon class="st4" points="371.1,939.6 425.6,971.1 425.6,908.2 		"/>
	</g>
	<rect y="-0.3" class="st0" width="648" height="1152"/>
	<g class="st2">
		<polygon class="st3" points="480,1002.5 480,1065.4 534.5,1033.9 		"/>
		<polygon class="st3" points="425.6,971.1 425.6,1033.9 480,1002.5 		"/>
		<polygon class="st4" points="480,939.6 480,1002.5 534.5,971.1 		"/>
		<polygon class="st3" points="480,1002.5 534.5,1033.9 534.5,971.1 		"/>
		<polygon class="st3" points="425.6,1033.9 480,1065.4 480,1002.5 		"/>
		<polygon class="st4" points="425.6,971.1 480,1002.5 480,939.6 		"/>
	</g>
	<rect y="-0.3" class="st0" width="648" height="1152"/>
	<g class="st2">
		<polygon class="st3" points="480,876.8 480,939.6 534.5,908.2 		"/>
		<polygon class="st3" points="425.6,845.3 425.6,908.2 480,876.8 		"/>
		<polygon class="st4" points="480,813.9 480,876.8 534.5,845.3 		"/>
		<polygon class="st3" points="480,876.8 534.5,908.2 534.5,845.3 		"/>
		<polygon class="st3" points="425.6,908.2 480,939.6 480,876.8 		"/>
		<polygon class="st4" points="425.6,845.3 480,876.8 480,813.9 		"/>
	</g>
	<rect y="-0.3" class="st0" width="648" height="1152"/>
	<g class="st2">
		<polygon class="st3" points="425.5,1096.8 425.5,1159.7 480,1128.2 		"/>
		<polygon class="st3" points="371.1,1065.4 371.1,1128.2 425.5,1096.8 		"/>
		<polygon class="st4" points="425.5,1033.9 425.5,1096.8 480,1065.4 		"/>
		<polygon class="st3" points="425.5,1096.8 480,1128.2 480,1065.4 		"/>
		<polygon class="st3" points="371.1,1128.2 425.5,1159.7 425.5,1096.8 		"/>
		<polygon class="st4" points="371.1,1065.4 425.5,1096.8 425.5,1033.9 		"/>
	</g>
	<rect y="-0.3" class="st0" width="648" height="1152"/>
	<g class="st2">
		<polygon class="st3" points="316.6,1096.8 316.6,1159.7 371.1,1128.2 		"/>
		<polygon class="st3" points="262.2,1065.4 262.2,1128.2 316.6,1096.8 		"/>
		<polygon class="st4" points="316.6,1033.9 316.6,1096.8 371.1,1065.4 		"/>
		<polygon class="st3" points="316.6,1096.8 371.1,1128.2 371.1,1065.4 		"/>
		<polygon class="st3" points="262.2,1128.2 316.6,1159.7 316.6,1096.8 		"/>
		<polygon class="st4" points="262.2,1065.4 316.6,1096.8 316.6,1033.9 		"/>
	</g>
	<rect y="-0.3" class="st0" width="648" height="1152"/>
	<g class="st2">
		<polygon class="st3" points="371.1,1128.2 371.1,1191.1 425.5,1159.7 		"/>
		<polygon class="st3" points="316.6,1096.8 316.6,1159.7 371.1,1128.2 		"/>
		<polygon class="st4" points="371.1,1065.4 371.1,1128.2 425.5,1096.8 		"/>
		<polygon class="st3" points="371.1,1128.2 425.5,1159.7 425.5,1096.8 		"/>
		<polygon class="st3" points="316.6,1159.7 371.1,1191.1 371.1,1128.2 		"/>
		<polygon class="st4" points="316.6,1096.8 371.1,1128.2 371.1,1065.4 		"/>
	</g>
	<rect y="-0.3" class="st0" width="648" height="1152"/>
	<g class="st2">
		<polygon class="st3" points="371.1,1002.5 371.1,1065.4 425.5,1033.9 		"/>
		<polygon class="st3" points="316.7,971.1 316.7,1033.9 371.1,1002.5 		"/>
		<polygon class="st4" points="371.1,939.6 371.1,1002.5 425.5,971.1 		"/>
		<polygon class="st3" points="371.1,1002.5 425.5,1033.9 425.5,971.1 		"/>
		<polygon class="st3" points="316.7,1033.9 371.1,1065.4 371.1,1002.5 		"/>
		<polygon class="st4" points="316.7,971.1 371.1,1002.5 371.1,939.6 		"/>
	</g>
	<rect y="-0.3" class="st0" width="648" height="1152"/>
	<g class="st2">
		<polygon class="st3" points="534.5,1096.8 534.5,1159.7 588.9,1128.2 		"/>
		<polygon class="st3" points="480,1065.4 480,1128.2 534.5,1096.8 		"/>
		<polygon class="st4" points="534.5,1033.9 534.5,1096.8 588.9,1065.4 		"/>
		<polygon class="st3" points="534.5,1096.8 588.9,1128.2 588.9,1065.4 		"/>
		<polygon class="st3" points="480,1128.2 534.5,1159.7 534.5,1096.8 		"/>
		<polygon class="st4" points="480,1065.4 534.5,1096.8 534.5,1033.9 		"/>
	</g>
	<rect y="-0.3" class="st0" width="648" height="1152"/>
	<g class="st2">
		<polygon class="st3" points="207.8,1096.8 207.8,1159.7 262.2,1128.2 		"/>
		<polygon class="st3" points="153.3,1065.3 153.3,1128.2 207.8,1096.8 		"/>
		<polygon class="st4" points="207.8,1033.9 207.8,1096.8 262.2,1065.3 		"/>
		<polygon class="st3" points="207.8,1096.8 262.2,1128.2 262.2,1065.3 		"/>
		<polygon class="st3" points="153.3,1128.2 207.8,1159.7 207.8,1096.8 		"/>
		<polygon class="st4" points="153.3,1065.3 207.8,1096.8 207.8,1033.9 		"/>
	</g>
	<rect y="-0.3" class="st0" width="648" height="1152"/>
	<g class="st2">
		<polygon class="st3" points="643.4,1096.8 643.4,1159.7 697.8,1128.2 		"/>
		<polygon class="st3" points="588.9,1065.4 588.9,1128.2 643.4,1096.8 		"/>
		<polygon class="st4" points="643.4,1033.9 643.4,1096.8 697.8,1065.4 		"/>
		<polygon class="st3" points="643.4,1096.8 697.8,1128.2 697.8,1065.4 		"/>
		<polygon class="st3" points="588.9,1128.2 643.4,1159.7 643.4,1096.8 		"/>
		<polygon class="st4" points="588.9,1065.4 643.4,1096.8 643.4,1033.9 		"/>
	</g>
	<rect y="-0.3" class="st0" width="648" height="1152"/>
	<g class="st2">
		<polygon class="st3" points="98.9,1096.8 98.9,1159.7 153.3,1128.2 		"/>
		<polygon class="st3" points="44.4,1065.3 44.4,1128.2 98.9,1096.8 		"/>
		<polygon class="st4" points="98.9,1033.9 98.9,1096.8 153.3,1065.3 		"/>
		<polygon class="st3" points="98.9,1096.8 153.3,1128.2 153.3,1065.3 		"/>
		<polygon class="st3" points="44.4,1128.2 98.9,1159.7 98.9,1096.8 		"/>
		<polygon class="st4" points="44.4,1065.3 98.9,1096.8 98.9,1033.9 		"/>
	</g>
	<rect y="-0.3" class="st0" width="648" height="1152"/>
	<g class="st2">
		<polygon class="st3" points="153.3,1128.2 153.3,1191.1 207.8,1159.7 		"/>
		<polygon class="st3" points="98.9,1096.8 98.9,1159.7 153.3,1128.2 		"/>
		<polygon class="st4" points="153.3,1065.4 153.3,1128.2 207.8,1096.8 		"/>
		<polygon class="st3" points="153.3,1128.2 207.8,1159.7 207.8,1096.8 		"/>
		<polygon class="st3" points="98.9,1159.7 153.3,1191.1 153.3,1128.2 		"/>
		<polygon class="st4" points="98.9,1096.8 153.3,1128.2 153.3,1065.4 		"/>
	</g>
	<rect y="-0.3" class="st0" width="648" height="1152"/>
	<g class="st2">
		<polygon class="st3" points="153.3,1002.5 153.3,1065.3 207.8,1033.9 		"/>
		<polygon class="st3" points="98.9,971 98.9,1033.9 153.3,1002.5 		"/>
		<polygon class="st4" points="153.3,939.6 153.3,1002.5 207.8,971 		"/>
		<polygon class="st3" points="153.3,1002.5 207.8,1033.9 207.8,971 		"/>
		<polygon class="st3" points="98.9,1033.9 153.3,1065.3 153.3,1002.5 		"/>
		<polygon class="st4" points="98.9,971 153.3,1002.5 153.3,939.6 		"/>
	</g>
	<rect y="-0.3" class="st0" width="648" height="1152"/>
	<g class="st2">
		<polygon class="st3" points="262.2,1188.7 262.2,1251.5 316.6,1220.1 		"/>
		<polygon class="st3" points="207.8,1157.2 207.8,1220.1 262.2,1188.7 		"/>
		<polygon class="st4" points="262.2,1125.8 262.2,1188.7 316.6,1157.2 		"/>
		<polygon class="st3" points="262.2,1188.7 316.6,1220.1 316.6,1157.2 		"/>
		<polygon class="st3" points="207.8,1220.1 262.2,1251.5 262.2,1188.7 		"/>
		<polygon class="st4" points="207.8,1157.2 262.2,1188.7 262.2,1125.8 		"/>
	</g>
	<rect y="-0.3" class="st0" width="648" height="1152"/>
	<g class="st2">
		<polygon class="st3" points="590,688.6 590,751.4 644.5,720 		"/>
		<polygon class="st3" points="535.6,657.1 535.6,720 590,688.6 		"/>
		<polygon class="st4" points="590,625.7 590,688.6 644.5,657.1 		"/>
		<polygon class="st3" points="590,688.6 644.5,720 644.5,657.1 		"/>
		<polygon class="st3" points="535.6,720 590,751.4 590,688.6 		"/>
		<polygon class="st4" points="535.6,657.1 590,688.6 590,625.7 		"/>
	</g>
	<rect y="-0.3" class="st0" width="648" height="1152"/>
	<g class="st2">
		<polygon class="st3" points="101,778.8 101,841.7 155.4,810.3 		"/>
		<polygon class="st3" points="46.6,747.4 46.6,810.3 101,778.8 		"/>
		<polygon class="st4" points="101,716 101,778.8 155.4,747.4 		"/>
		<polygon class="st3" points="101,778.8 155.4,810.3 155.4,747.4 		"/>
		<polygon class="st3" points="46.6,810.3 101,841.7 101,778.8 		"/>
		<polygon class="st4" points="46.6,747.4 101,778.8 101,716 		"/>
	</g>
	<rect y="-0.3" class="st0" width="648" height="1152"/>
	<g class="st2">
		<polygon class="st3" points="481.4,493.5 481.4,556.4 535.8,524.9 		"/>
		<polygon class="st3" points="427,462.1 427,524.9 481.4,493.5 		"/>
		<polygon class="st4" points="481.4,430.6 481.4,493.5 535.8,462.1 		"/>
		<polygon class="st3" points="481.4,493.5 535.8,524.9 535.8,462.1 		"/>
		<polygon class="st3" points="427,524.9 481.4,556.4 481.4,493.5 		"/>
		<polygon class="st4" points="427,462.1 481.4,493.5 481.4,430.6 		"/>
	</g>
	<rect y="-0.3" class="st0" width="648" height="1152"/>
	<g class="st2">
		<polygon class="st3" points="101,384.5 101,447.4 155.4,416 		"/>
		<polygon class="st3" points="46.6,353.1 46.6,416 101,384.5 		"/>
		<polygon class="st4" points="101,321.7 101,384.5 155.4,353.1 		"/>
		<polygon class="st3" points="101,384.5 155.4,416 155.4,353.1 		"/>
		<polygon class="st3" points="46.6,416 101,447.4 101,384.5 		"/>
		<polygon class="st4" points="46.6,353.1 101,384.5 101,321.7 		"/>
	</g>
	<rect y="-0.3" class="st0" width="648" height="1152"/>
	<g class="st2">
		<polygon class="st3" points="371.1,813.9 371.1,876.8 425.5,845.3 		"/>
		<polygon class="st3" points="316.7,782.5 316.7,845.3 371.1,813.9 		"/>
		<polygon class="st4" points="371.1,751 371.1,813.9 425.5,782.5 		"/>
		<polygon class="st3" points="371.1,813.9 425.5,845.3 425.5,782.5 		"/>
		<polygon class="st3" points="316.7,845.3 371.1,876.8 371.1,813.9 		"/>
		<polygon class="st4" points="316.7,782.5 371.1,813.9 371.1,751 		"/>
	</g>
	<rect y="-0.3" class="st0" width="648" height="1152"/>
	<g class="st2">
		<polygon class="st3" points="191,555.4 191,618.3 245.5,586.9 		"/>
		<polygon class="st3" points="136.6,524 136.6,586.9 191,555.4 		"/>
		<polygon class="st4" points="191,492.6 191,555.4 245.5,524 		"/>
		<polygon class="st3" points="191,555.4 245.5,586.9 245.5,524 		"/>
		<polygon class="st3" points="136.6,586.9 191,618.3 191,555.4 		"/>
		<polygon class="st4" points="136.6,524 191,555.4 191,492.6 		"/>
	</g>
	<rect y="-0.3" class="st0" width="648" height="1152"/>
	<g class="st2">
		<polygon class="st3" points="536.4,77.4 536.4,140.3 590.8,108.9 		"/>
		<polygon class="st3" points="481.9,46 481.9,108.9 536.4,77.4 		"/>
		<polygon class="st4" points="536.4,14.6 536.4,77.4 590.8,46 		"/>
		<polygon class="st3" points="536.4,77.4 590.8,108.9 590.8,46 		"/>
		<polygon class="st3" points="481.9,108.9 536.4,140.3 536.4,77.4 		"/>
		<polygon class="st4" points="481.9,46 536.4,77.4 536.4,14.6 		"/>
	</g>
	<rect y="-0.3" class="st0" width="648" height="1152"/>
	<g class="st2">
		<polygon class="st3" points="353,249.5 353,312.4 407.4,280.9 		"/>
		<polygon class="st3" points="298.5,218.1 298.5,280.9 353,249.5 		"/>
		<polygon class="st4" points="353,186.6 353,249.5 407.4,218.1 		"/>
		<polygon class="st3" points="353,249.5 407.4,280.9 407.4,218.1 		"/>
		<polygon class="st3" points="298.5,280.9 353,312.4 353,249.5 		"/>
		<polygon class="st4" points="298.5,218.1 353,249.5 353,186.6 		"/>
	</g>
	<rect y="-0.3" class="st0" width="648" height="1152"/>
	<g class="st2">
		<polygon class="st3" points="153.3,140.3 153.3,203.2 207.8,171.7 		"/>
		<polygon class="st3" points="98.9,108.9 98.9,171.7 153.3,140.3 		"/>
		<polygon class="st4" points="153.3,77.4 153.3,140.3 207.8,108.9 		"/>
		<polygon class="st3" points="153.3,140.3 207.8,171.7 207.8,108.9 		"/>
		<polygon class="st3" points="98.9,171.7 153.3,203.2 153.3,140.3 		"/>
		<polygon class="st4" points="98.9,108.9 153.3,140.3 153.3,77.4 		"/>
	</g>
	<rect y="-0.3" class="st0" width="648" height="1152"/>
	<g class="st2">
		<polygon class="st3" points="648,321.7 648,384.5 702.5,353.1 		"/>
		<polygon class="st3" points="593.5,290.2 593.5,353.1 648,321.7 		"/>
		<polygon class="st4" points="648,258.8 648,321.7 702.5,290.2 		"/>
		<polygon class="st3" points="648,321.7 702.5,353.1 702.5,290.2 		"/>
		<polygon class="st3" points="593.5,353.1 648,384.5 648,321.7 		"/>
		<polygon class="st4" points="593.5,290.2 648,321.7 648,258.8 		"/>
	</g>
	<g class="st2">
		<g class="st5">
			<path class="st6" d="M134.5,600.6v57.9c0,7.1,2.4,11.3,4.4,13.7c2.6,3.2,7.5,6.4,14.7,6.4s12-3.2,14.7-6.4
				c2.1-2.3,4.4-6.6,4.4-13.7v-57.9h18V657c0,8.7-1.4,17.6-6.9,24.6c-6.6,8.7-18.2,13.3-30.1,13.3s-23.5-4.6-30.1-13.3
				c-5.5-7-6.9-15.9-6.9-24.6v-56.4H134.5z"/>
			<path class="st6" d="M211.6,692.9v-92.2h12.4l56.1,61.5v-61.5h18v92.2h-12.4l-56.1-61.7v61.7H211.6z"/>
			<path class="st6" d="M343.2,600.6c12.9,0,24.1,1.4,34.3,9c11.2,8.4,17.7,21.8,17.7,37.2c0,15.3-6.4,28.6-18.5,37.2
				c-10.8,7.6-20.9,8.8-33.7,8.8h-23.8v-92.2H343.2z M337.2,677.4h5.5c4.6,0,14.5-0.3,22.5-6.1c7.3-5.3,11.5-14.7,11.5-24.5
				c0-9.7-4-19.1-11.3-24.6c-7.5-5.5-16.6-6.1-22.7-6.1h-5.5V677.4z"/>
			<path class="st6" d="M463,616.1h-33.2v20.6h31.8v15.5h-31.8v25.2H463v15.5h-51.2v-92.2H463V616.1z"/>
			<path class="st6" d="M507.1,600.6c12.7,0,19.2,3.3,23.5,6.9c7.1,5.9,9.1,13.8,9.1,20.7c0,9-3.6,16.9-10.8,21.7
				c-2.3,1.7-5.7,3.2-10.1,4l28.8,38.8h-22.4l-24.6-37h-2.2v37h-18v-92.2H507.1z M498.3,643.1h5.1c3.5,0,17.7-0.4,17.7-14
				c0-13.7-14.1-13.8-17.4-13.8h-5.4V643.1z"/>
		</g>
		<g class="st5">
			<path class="st6" d="M144.2,754.7c-2.4,1.2-5.5,2.3-9.7,2.3c-6.9,0-11.1-2.4-14.4-5.5c-4.5-4.4-6.3-9.3-6.3-15.1
				c0-7.1,3-12.3,6.3-15.4c4-3.7,8.9-5.2,14.5-5.2c2.8,0,6.1,0.5,9.7,2.4v9c-3.6-4.1-8.1-4.4-9.5-4.4c-7.9,0-13.1,6.5-13.1,13.8
				c0,8.7,6.7,13.5,13.4,13.5c3.7,0,6.9-1.6,9.2-4.3V754.7z"/>
			<path class="st6" d="M191.5,736.5c0,12-8.6,20.6-21,20.6s-21-8.6-21-20.6c0-12,8.6-20.6,21-20.6S191.5,724.5,191.5,736.5z
				 M183.6,736.5c0-8-5.4-13.6-13.1-13.6s-13.1,5.7-13.1,13.6c0,8,5.4,13.6,13.1,13.6S183.6,744.4,183.6,736.5z"/>
			<path class="st6" d="M198.6,756.1v-39.4h5.3l24,26.3v-26.3h7.7v39.4h-5.3l-24-26.4v26.4H198.6z"/>
			<path class="st6" d="M263.9,725.7c-2.3-3.1-5-3.4-6.4-3.4c-4.1,0-5.4,2.6-5.4,4.6c0,0.9,0.3,1.8,1.2,2.7c0.9,0.9,2.2,1.4,4.7,2.2
				c3.1,1.1,6,2.1,8,4c1.8,1.6,3.4,4.3,3.4,8.3c0,7.7-5.6,12.9-13.7,12.9c-7.3,0-11.5-4.4-13.6-7.4l5-4.8c1.9,3.8,5.5,5.3,8.3,5.3
				c3.5,0,6.1-2.1,6.1-5.4c0-1.4-0.5-2.5-1.5-3.5c-1.5-1.4-3.8-2.1-6.1-2.9c-2.1-0.7-4.5-1.7-6.6-3.4c-1.3-1.1-3.1-3.3-3.1-7.3
				c0-5.8,3.9-11.6,12.6-11.6c2.5,0,7.1,0.5,11.2,4.6L263.9,725.7z"/>
			<path class="st6" d="M287.9,723.4v32.8h-7.7v-32.8h-8.9v-6.6h25.4v6.6H287.9z"/>
			<path class="st6" d="M313,716.7c5.4,0,8.2,1.4,10,3c3,2.5,3.9,5.9,3.9,8.9c0,3.8-1.5,7.2-4.6,9.3c-1,0.7-2.4,1.4-4.3,1.7
				l12.3,16.6h-9.6l-10.5-15.8h-0.9v15.8h-7.7v-39.4H313z M309.3,734.9h2.2c1.5,0,7.6-0.2,7.6-6c0-5.8-6-5.9-7.4-5.9h-2.3V734.9z"/>
			<path class="st6" d="M343.2,716.7v24.8c0,3,1,4.8,1.9,5.8c1.1,1.4,3.2,2.7,6.3,2.7s5.1-1.4,6.3-2.7c0.9-1,1.9-2.8,1.9-5.8v-24.8
				h7.7v24.1c0,3.7-0.6,7.5-3,10.5c-2.8,3.7-7.8,5.7-12.9,5.7s-10-2-12.9-5.7c-2.4-3-3-6.8-3-10.5v-24.1H343.2z"/>
			<path class="st6" d="M404.8,754.7c-2.4,1.2-5.5,2.3-9.7,2.3c-6.9,0-11.1-2.4-14.4-5.5c-4.5-4.4-6.3-9.3-6.3-15.1
				c0-7.1,3-12.3,6.3-15.4c4-3.7,8.9-5.2,14.5-5.2c2.8,0,6.1,0.5,9.7,2.4v9c-3.6-4.1-8.1-4.4-9.5-4.4c-7.9,0-13.1,6.5-13.1,13.8
				c0,8.7,6.7,13.5,13.4,13.5c3.7,0,6.9-1.6,9.2-4.3V754.7z"/>
			<path class="st6" d="M425,723.4v32.8h-7.7v-32.8h-8.9v-6.6h25.4v6.6H425z"/>
			<path class="st6" d="M446.3,716.7v39.4h-7.7v-39.4H446.3z"/>
			<path class="st6" d="M495.5,736.5c0,12-8.6,20.6-21,20.6s-21-8.6-21-20.6c0-12,8.6-20.6,21-20.6S495.5,724.5,495.5,736.5z
				 M487.6,736.5c0-8-5.4-13.6-13.1-13.6s-13.1,5.7-13.1,13.6c0,8,5.4,13.6,13.1,13.6S487.6,744.4,487.6,736.5z"/>
			<path class="st6" d="M502.6,756.1v-39.4h5.3l24,26.3v-26.3h7.7v39.4h-5.3l-24-26.4v26.4H502.6z"/>
		</g>
		<g class="st5">
			<path class="st6" d="M327.6,498.7c18,0,31.9,13.9,31.9,31.9c0,18-13.9,31.9-31.9,31.9c-18,0-31.9-13.9-31.9-31.9
				C295.7,512.6,309.6,498.7,327.6,498.7z M302.2,474.1V284.2H353v189.9H302.2z"/>
		</g>
	</g>
</g>
</svg>
